# xmcd
#
# Track frame offsets: 
#        150
#        13024
#        26323
#        46819
#        64446
#        80822
#        93514
#        108755
#        130107
#        141263
#        164885
#        180899
#
# Disc length: 2957 seconds
#
# Revision: 0
# Processed by: cddbd v1.5.1PL0 Copyright (c) Steve Scherf et al.
# Submitted via: ExactAudioCopy v0.90b4
#
DISCID=9c0b8b0c
DTITLE=John Mayall - Blues from Lauree Canyon
DYEAR=1989
DGENRE=Blues
TTITLE0=Vacation
TTITLE1=Walking On Sunset
TTITLE2=Laurel Canyon Home
TTITLE3=2401
TTITLE4=Ready To Ride
TTITLE5=Medicine Man
TTITLE6=Somebody´s Acting Like A Child
TTITLE7=The Bear
TTITLE8=Miss James
TTITLE9=First Time Alone
TTITLE10=Lone Gone Midnight
TTITLE11=Fly Tomorrow
EXTD=
EXTT0=
EXTT1=
EXTT2=
EXTT3=
EXTT4=
EXTT5=
EXTT6=
EXTT7=
EXTT8=
EXTT9=
EXTT10=
EXTT11=
PLAYORDER=
